<svg version="1.1" id="fig378a" xmlns="http://www.w3.org/2000/svg" xmlns:xlink="http://www.w3.org/1999/xlink" x="0" y="0" viewbox="0 0 1200 1200">
<style>
#fig378a g.textgroup {fill: #000; font: 55px "Routed Gothic", Arial, sans-serif;}
#fig378a text.symbol {font-style: italic;}
#fig378a text.alpha {font-size: 65px;}
circle {z-index: 100;}
</style>
  <defs>
    <pattern id="diagonalHatch" width="24.35" height="200" patternTransform="rotate(45)" patternUnits="userSpaceOnUse">
      <line x1="20" y1="0" x2="20" y2="200" stroke="#000" stroke-width="12" />
    </pattern>
    <symbol id="arrowhead" viewBox="0 0 20 55" preserveAspectRatio="none" >
      <polygon points="0,50 10,0 20,50 10,55" fill="#000" />
    </symbol>
  </defs>
  <g stroke="#000" fill="none">
	<g stroke-width="17">
		<path d="M220,27 652,724" />
		<path d="M25,725 1010,725" />
	</g>
	<g stroke-width="7">
		<path d="M444,188 286,276" />
		<path d="M575,340 544,340 505,380" />
	</g>
	<g stroke-width="7">
		<path d="M332,687 A300 300 0 0 1 347,615" />
		<path d="M372,563 A300 300 0 0 1 452,470" />
	</g>
	<g class="textgroup">
		<text class="symbol" x="197" y="322">p</text>
		<text class="symbol alpha" x="331" y="607">α</text>
		<text class="label" x="603" y="365">BLAST WAVE FRONT</text>
		<text class="label" x="166" y="922">REFLECTING SURFACE</text>
	</g>
	<use href="#arrowhead" x="276" y="226" height="55" width="20" transform="rotate(-120,286,276)" />
	<use href="#arrowhead" x="500" y="320" height="55" width="20" transform="rotate(-136,510,375)" />
	<use href="#arrowhead" x="326" y="655" height="30" width="16" transform="rotate(180,333,685)" />
	<use href="#arrowhead" x="442" y="442" height="30" width="16" transform="rotate(50,450,472)" />
	<polygon points="0,775 50,725 1005,725 955,775" stroke-width="0" fill="url(#diagonalHatch)" />
  </g>
</svg>
