<svg version="1.1" id="fig378a" xmlns="http://www.w3.org/2000/svg" xmlns:xlink="http://www.w3.org/1999/xlink" x="0" y="0" height="1168" width="932" viewbox="0 0 1168 932">
<style>
#fig378a g.textgroup {fill: #000; font: 55px Arial, sans-serif;}
#fig378a text.symbol {font-style: italic;}
#fig378a text.alpha {font-size: 67px;}
#fig378a text.label {font-weight: bold;}
</style>
  <defs>
    <pattern id="diagonalHatch" width="24.35" height="200" patternTransform="rotate(45)" patternUnits="userSpaceOnUse">
      <line x1="20" y1="0" x2="20" y2="200" stroke="#000" stroke-width="12" />
    </pattern>
    <symbol id="arrowhead" viewbox="0 0 30 20" preserveAspectRatio="none" >
      <polygon points="0,20 15,0 30,20" fill="#000" />
    </symbol>
  </defs>
  <g stroke="#000" fill="none">
	<g stroke-width="17">
		<path d="M220,27 652,724" />
		<path d="M25,725 1010,725" />
	</g>
	<g stroke-width="7">
		<path d="M444,188 286,276" />
		<path d="M575,340 544,340 500,385" />
	</g>
	<g stroke-width="7">
		<path d="M332,685 A300 300 0 0 1 347,615" />
		<path d="M372,563 A300 300 0 0 1 447,475" />
	</g>
	<g class="textgroup">
		<text class="symbol" x="197" y="322">p</text>
		<text class="symbol alpha" x="331" y="607">α</text>
		<text class="label" x="603" y="365">BLAST WAVE FRONT</text>
		<text class="label" x="166" y="922">REFLECTING SURFACE</text>
	</g>
	<use href="#arrowhead" x="286" y="276" height="60" width="20" transform-origin="286 276" transform="rotate(240) translate(-10 -50)" />
	<use href="#arrowhead" x="500" y="385" height="60" width="20" transform-origin="500 385" transform="rotate(224) translate(-10 -50)" />
	<use href="#arrowhead" x="332" y="685" height="40" width="20" transform-origin="332 685" transform="rotate(180) translate(-10 -30)" />
	<use href="#arrowhead" x="450" y="472" height="40" width="20" transform-origin="450 472" transform="rotate(50) translate(-10 -30)" />
	<polygon points="0,775 50,725 1005,725 955,775" stroke-width="0" fill="url(#diagonalHatch)" />
  </g>
</svg>
